<svg width="13" height="14" viewBox="0 0 13 14" fill="none" xmlns="http://www.w3.org/2000/svg">
<path d="M8.20548 10.8877L6.20548 13.8877C6.18726 13.9151 6.16383 13.9385 6.13654 13.9568C6.10924 13.9751 6.07862 13.9878 6.04641 13.9943C6.0142 14.0007 5.98103 14.0007 5.94881 13.9944C5.91658 13.988 5.88593 13.9753 5.8586 13.9571C5.83127 13.9389 5.8078 13.9155 5.78952 13.8882C5.77124 13.8609 5.75852 13.8302 5.75207 13.798C5.74563 13.7658 5.7456 13.7327 5.75197 13.7004C5.75835 13.6682 5.77101 13.6376 5.78923 13.6102L7.78923 10.6102C7.80745 10.5829 7.83087 10.5594 7.85817 10.5411C7.88546 10.5229 7.91609 10.5101 7.9483 10.5037C7.98051 10.4973 8.01367 10.4972 8.04589 10.5036C8.07812 10.51 8.10877 10.5226 8.1361 10.5408C8.16343 10.5591 8.18691 10.5825 8.20519 10.6098C8.22346 10.6371 8.23619 10.6677 8.24263 10.6999C8.24907 10.7321 8.24911 10.7653 8.24273 10.7975C8.23636 10.8297 8.2237 10.8604 8.20548 10.8877ZM12.7474 4.49897C12.746 5.69204 12.2715 6.83587 11.4279 7.67949C10.5842 8.52312 9.44042 8.99765 8.24735 8.99897H6.6311L4.70548 11.8877C4.68726 11.9151 4.66383 11.9385 4.63654 11.9568C4.60924 11.9751 4.57862 11.9878 4.54641 11.9943C4.5142 12.0007 4.48103 12.0007 4.44881 11.9944C4.41658 11.988 4.38593 11.9753 4.3586 11.9571C4.33127 11.9389 4.3078 11.9155 4.28952 11.8882C4.27124 11.8609 4.25852 11.8302 4.25207 11.798C4.24563 11.7658 4.2456 11.7327 4.25197 11.7004C4.25835 11.6682 4.27101 11.6376 4.28923 11.6102L6.03048 8.99897H3.24735C2.82303 8.9986 2.40361 8.90821 2.01679 8.73379C1.62998 8.55936 1.28456 8.30486 1.00336 7.98709C0.722157 7.66932 0.511564 7.29551 0.385486 6.89035C0.259408 6.48519 0.220713 6.05789 0.271958 5.63667C0.323202 5.21545 0.463219 4.8099 0.682764 4.44678C0.902308 4.08367 1.19638 3.77126 1.54557 3.53018C1.89476 3.28911 2.29112 3.12485 2.70848 3.04825C3.12583 2.97166 3.55469 2.98447 3.96673 3.08585C4.3037 2.07062 4.99092 1.20843 5.90544 0.653539C6.81995 0.0986495 7.90207 -0.112723 8.95816 0.0572417C10.0143 0.227207 10.9754 0.767418 11.6697 1.58121C12.3639 2.39501 12.7459 3.42929 12.7474 4.49897ZM12.2474 4.49897C12.245 3.45911 11.8381 2.46096 11.1129 1.71575C10.3876 0.970538 9.4009 0.536726 8.36148 0.506112C7.32207 0.475497 6.31152 0.850484 5.54367 1.55172C4.77582 2.25296 4.31093 3.22543 4.24735 4.26335C4.24354 4.32965 4.21354 4.39173 4.16396 4.43591C4.11438 4.4801 4.04928 4.50279 3.98298 4.49897C3.91667 4.49516 3.8546 4.46517 3.81041 4.41559C3.76622 4.366 3.74354 4.3009 3.74735 4.2346C3.76023 4.01081 3.7899 3.78831 3.8361 3.56897C3.49277 3.48597 3.13576 3.47667 2.78857 3.54167C2.44139 3.60667 2.11192 3.74451 1.82188 3.94609C1.53183 4.14768 1.2878 4.40843 1.10585 4.71118C0.923902 5.01393 0.808173 5.3518 0.766289 5.70252C0.724405 6.05325 0.757316 6.40887 0.862853 6.74595C0.968391 7.08303 1.14416 7.39392 1.37858 7.65814C1.613 7.92235 1.90074 8.1339 2.22285 8.27883C2.54497 8.42376 2.89413 8.49879 3.24735 8.49897H8.24735C9.30786 8.49782 10.3246 8.07602 11.0745 7.32612C11.8244 6.57623 12.2462 5.55948 12.2474 4.49897Z" fill="white"/>
</svg>
