<svg width="27" height="28" viewBox="0 0 27 28" fill="none" xmlns="http://www.w3.org/2000/svg">
<path d="M26.7068 25.306L20.4481 19.0485C22.2621 16.8707 23.1667 14.0773 22.9736 11.2495C22.7805 8.42163 21.5047 5.77711 19.4115 3.866C17.3183 1.9549 14.5689 0.924355 11.7352 0.988755C8.90152 1.05315 6.20176 2.20754 4.19754 4.21176C2.19331 6.21599 1.03893 8.91575 0.974526 11.7494C0.910126 14.5831 1.94067 17.3325 3.85177 19.4257C5.76288 21.5189 8.40741 22.7948 11.2352 22.9878C14.063 23.1809 16.8564 22.2763 19.0343 20.4623L25.2918 26.721C25.3847 26.8139 25.495 26.8876 25.6164 26.9379C25.7378 26.9882 25.8679 27.0141 25.9993 27.0141C26.1307 27.0141 26.2608 26.9882 26.3822 26.9379C26.5036 26.8876 26.6139 26.8139 26.7068 26.721C26.7997 26.6281 26.8734 26.5178 26.9237 26.3964C26.974 26.275 26.9999 26.1449 26.9999 26.0135C26.9999 25.8821 26.974 25.752 26.9237 25.6306C26.8734 25.5092 26.7997 25.3989 26.7068 25.306ZM2.99931 12.0135C2.99931 10.2335 3.52715 8.49345 4.51608 7.0134C5.50501 5.53336 6.91062 4.37981 8.55516 3.69862C10.1997 3.01743 12.0093 2.8392 13.7551 3.18647C15.5009 3.53374 17.1046 4.3909 18.3633 5.64958C19.6219 6.90825 20.4791 8.5119 20.8264 10.2577C21.1736 12.0036 20.9954 13.8132 20.3142 15.4577C19.633 17.1022 18.4795 18.5078 16.9994 19.4968C15.5194 20.4857 13.7793 21.0135 11.9993 21.0135C9.61317 21.0109 7.32552 20.0618 5.63827 18.3746C3.95102 16.6873 3.00196 14.3997 2.99931 12.0135Z" fill="white"/>
</svg>
