<svg width="14" height="11" viewBox="0 0 14 11" fill="none" xmlns="http://www.w3.org/2000/svg">
<path d="M10.25 9C10.25 9.46413 10.0656 9.90925 9.73744 10.2374C9.40925 10.5656 8.96413 10.75 8.5 10.75C7.74438 10.75 7.015 10.2606 6.76562 9.58687C6.75351 9.55595 6.74768 9.52291 6.74848 9.48971C6.74927 9.4565 6.75668 9.42378 6.77026 9.39347C6.78384 9.36316 6.80333 9.33585 6.82758 9.31316C6.85183 9.29046 6.88037 9.27282 6.91151 9.26128C6.94266 9.24973 6.97579 9.24451 7.00898 9.24592C7.04217 9.24732 7.07474 9.25533 7.1048 9.26946C7.13486 9.2836 7.1618 9.30359 7.18405 9.32825C7.2063 9.35292 7.2234 9.38177 7.23438 9.41313C7.41125 9.89 7.955 10.25 8.5 10.25C8.83152 10.25 9.14946 10.1183 9.38388 9.88388C9.6183 9.64946 9.75 9.33152 9.75 9C9.75 8.66848 9.6183 8.35054 9.38388 8.11612C9.14946 7.8817 8.83152 7.75 8.5 7.75H1.5C1.4337 7.75 1.37011 7.72366 1.32322 7.67678C1.27634 7.62989 1.25 7.5663 1.25 7.5C1.25 7.4337 1.27634 7.37011 1.32322 7.32322C1.37011 7.27634 1.4337 7.25 1.5 7.25H8.5C8.96413 7.25 9.40925 7.43437 9.73744 7.76256C10.0656 8.09075 10.25 8.53587 10.25 9ZM8.25 2C8.25 1.53587 8.06563 1.09075 7.73744 0.762563C7.40925 0.434375 6.96413 0.25 6.5 0.25C5.74438 0.25 5.015 0.739375 4.76562 1.41313C4.74399 1.47496 4.74749 1.54281 4.77537 1.60209C4.80325 1.66137 4.85328 1.70734 4.91471 1.73011C4.97613 1.75288 5.04404 1.75063 5.10382 1.72384C5.1636 1.69705 5.21048 1.64787 5.23438 1.58687C5.41125 1.11 5.955 0.75 6.5 0.75C6.83152 0.75 7.14946 0.881696 7.38388 1.11612C7.6183 1.35054 7.75 1.66848 7.75 2C7.75 2.33152 7.6183 2.64946 7.38388 2.88388C7.14946 3.1183 6.83152 3.25 6.5 3.25H0.5C0.433696 3.25 0.370107 3.27634 0.323223 3.32322C0.276339 3.37011 0.25 3.4337 0.25 3.5C0.25 3.5663 0.276339 3.62989 0.323223 3.67678C0.370107 3.72366 0.433696 3.75 0.5 3.75H6.5C6.96413 3.75 7.40925 3.56563 7.73744 3.23744C8.06563 2.90925 8.25 2.46413 8.25 2ZM12 2.25C11.2444 2.25 10.515 2.73938 10.2656 3.41313C10.2535 3.44405 10.2477 3.47709 10.2485 3.51029C10.2493 3.5435 10.2567 3.57622 10.2703 3.60653C10.2838 3.63684 10.3033 3.66415 10.3276 3.68684C10.3518 3.70954 10.3804 3.72718 10.4115 3.73872C10.4427 3.75027 10.4758 3.75549 10.509 3.75408C10.5422 3.75268 10.5747 3.74467 10.6048 3.73054C10.6349 3.7164 10.6618 3.69641 10.684 3.67175C10.7063 3.64708 10.7234 3.61823 10.7344 3.58687C10.9113 3.11 11.455 2.75 12 2.75C12.3315 2.75 12.6495 2.8817 12.8839 3.11612C13.1183 3.35054 13.25 3.66848 13.25 4C13.25 4.33152 13.1183 4.64946 12.8839 4.88388C12.6495 5.1183 12.3315 5.25 12 5.25H1C0.933696 5.25 0.870107 5.27634 0.823223 5.32322C0.776339 5.37011 0.75 5.4337 0.75 5.5C0.75 5.5663 0.776339 5.62989 0.823223 5.67678C0.870107 5.72366 0.933696 5.75 1 5.75H12C12.4641 5.75 12.9092 5.56563 13.2374 5.23744C13.5656 4.90925 13.75 4.46413 13.75 4C13.75 3.53587 13.5656 3.09075 13.2374 2.76256C12.9092 2.43437 12.4641 2.25 12 2.25Z" fill="white"/>
</svg>
