<svg width="11" height="14" viewBox="0 0 11 14" fill="none" xmlns="http://www.w3.org/2000/svg">
<path d="M8.1875 2.39815C7.4288 1.52185 6.57501 0.732621 5.64188 0.0450239C5.5999 0.0157159 5.54994 0 5.49875 0C5.44756 0 5.3976 0.0157159 5.35563 0.0450239C4.42336 0.732767 3.57042 1.52199 2.8125 2.39815C1.13563 4.32565 0.25 6.34877 0.25 8.25002C0.25 9.64241 0.803123 10.9778 1.78769 11.9623C2.77226 12.9469 4.10761 13.5 5.5 13.5C6.89239 13.5 8.22775 12.9469 9.21231 11.9623C10.1969 10.9778 10.75 9.64241 10.75 8.25002C10.75 6.34877 9.86438 4.32565 8.1875 2.39815ZM9.36938 11H1.63062C1.30647 10.546 1.06525 10.0382 0.918125 9.50002H10.0819C9.93475 10.0382 9.69353 10.546 9.36938 11ZM0.8125 9.00002C0.771708 8.75209 0.750808 8.50129 0.75 8.25002C0.750326 7.99922 0.766819 7.7487 0.799375 7.50002H10.2006C10.2332 7.7487 10.2497 7.99922 10.25 8.25002C10.2492 8.50129 10.2283 8.75209 10.1875 9.00002H0.8125ZM3.18125 2.73565C3.87953 1.93554 4.65634 1.20752 5.5 0.562524C6.34378 1.20831 7.12059 1.93717 7.81875 2.73815C8.71688 3.77252 9.75625 5.27627 10.1169 7.00252H0.883125C1.24563 5.27377 2.28313 3.77002 3.18125 2.73565ZM5.5 13C4.85139 13.0002 4.20966 12.8672 3.61459 12.6092C3.01951 12.3511 2.48379 11.9736 2.04063 11.5H8.95938C8.51621 11.9736 7.98049 12.3511 7.38541 12.6092C6.79034 12.8672 6.14861 13.0002 5.5 13Z" fill="white"/>
</svg>
