<svg width="51" height="52" viewBox="0 0 51 52" fill="none" xmlns="http://www.w3.org/2000/svg">
<rect x="0.97168" y="0.985909" width="50.0282" height="50.0282" rx="10" fill="#2C8DFF"/>
<path d="M38.7068 37.306L32.4481 31.0485C34.2621 28.8707 35.1667 26.0773 34.9736 23.2495C34.7805 20.4216 33.5047 17.7771 31.4115 15.866C29.3183 13.9549 26.5689 12.9244 23.7352 12.9888C20.9015 13.0532 18.2018 14.2075 16.1975 16.2118C14.1933 18.216 13.0389 20.9157 12.9745 23.7494C12.9101 26.5831 13.9407 29.3325 15.8518 31.4257C17.7629 33.5189 20.4074 34.7948 23.2352 34.9878C26.063 35.1809 28.8564 34.2763 31.0343 32.4623L37.2918 38.721C37.3847 38.8139 37.495 38.8876 37.6164 38.9379C37.7378 38.9882 37.8679 39.0141 37.9993 39.0141C38.1307 39.0141 38.2608 38.9882 38.3822 38.9379C38.5036 38.8876 38.6139 38.8139 38.7068 38.721C38.7997 38.6281 38.8734 38.5178 38.9237 38.3964C38.974 38.275 38.9999 38.1449 38.9999 38.0135C38.9999 37.8821 38.974 37.752 38.9237 37.6306C38.8734 37.5092 38.7997 37.3989 38.7068 37.306ZM14.9993 24.0135C14.9993 22.2335 15.5271 20.4934 16.5161 19.0134C17.505 17.5334 18.9106 16.3798 20.5552 15.6986C22.1997 15.0174 24.0093 14.8392 25.7551 15.1865C27.5009 15.5337 29.1046 16.3909 30.3633 17.6496C31.6219 18.9082 32.4791 20.5119 32.8264 22.2577C33.1736 24.0036 32.9954 25.8132 32.3142 27.4577C31.633 29.1022 30.4795 30.5078 28.9994 31.4968C27.5194 32.4857 25.7793 33.0135 23.9993 33.0135C21.6132 33.0109 19.3255 32.0618 17.6383 30.3746C15.951 28.6873 15.002 26.3997 14.9993 24.0135Z" fill="white"/>
</svg>
