<svg width="64" height="64" viewBox="0 0 64 64" fill="none" xmlns="http://www.w3.org/2000/svg">
<path d="M53 15C51.8133 15 50.6533 15.3519 49.6666 16.0112C48.6799 16.6705 47.9108 17.6075 47.4567 18.7039C47.0026 19.8003 46.8838 21.0067 47.1153 22.1705C47.3468 23.3344 47.9182 24.4035 48.7574 25.2426C49.5965 26.0818 50.6656 26.6532 51.8295 26.8847C52.9933 27.1162 54.1997 26.9974 55.2961 26.5433C56.3925 26.0892 57.3295 25.3201 57.9888 24.3334C58.6481 23.3467 59 22.1867 59 21C59 19.4087 58.3679 17.8826 57.2426 16.7574C56.1174 15.6321 54.5913 15 53 15ZM53 25C52.2089 25 51.4355 24.7654 50.7777 24.3259C50.1199 23.8864 49.6072 23.2616 49.3045 22.5307C49.0017 21.7998 48.9225 20.9956 49.0769 20.2196C49.2312 19.4437 49.6122 18.731 50.1716 18.1716C50.731 17.6122 51.4437 17.2312 52.2196 17.0769C52.9956 16.9225 53.7998 17.0017 54.5307 17.3045C55.2616 17.6072 55.8864 18.1199 56.3259 18.7777C56.7654 19.4355 57 20.2089 57 21C57 22.0609 56.5786 23.0783 55.8284 23.8284C55.0783 24.5786 54.0609 25 53 25ZM31 39.0725V22C31 21.7348 30.8946 21.4804 30.7071 21.2929C30.5196 21.1054 30.2652 21 30 21C29.7348 21 29.4804 21.1054 29.2929 21.2929C29.1054 21.4804 29 21.7348 29 22V39.0725C27.2484 39.3253 25.6576 40.2322 24.5477 41.6107C23.4378 42.9891 22.8912 44.7368 23.018 46.502C23.1447 48.2672 23.9353 49.9189 25.2308 51.1246C26.5262 52.3304 28.2303 53.0007 30 53.0007C31.7697 53.0007 33.4738 52.3304 34.7692 51.1246C36.0646 49.9189 36.8553 48.2672 36.982 46.502C37.1088 44.7368 36.5622 42.9891 35.4523 41.6107C34.3424 40.2322 32.7516 39.3253 31 39.0725ZM30 51C29.0111 51 28.0444 50.7068 27.2221 50.1573C26.3999 49.6079 25.759 48.827 25.3806 47.9134C25.0022 46.9998 24.9031 45.9945 25.0961 45.0245C25.289 44.0546 25.7652 43.1637 26.4645 42.4645C27.1637 41.7652 28.0546 41.289 29.0245 41.0961C29.9945 40.9031 30.9998 41.0022 31.9134 41.3806C32.827 41.759 33.6079 42.3999 34.1573 43.2221C34.7068 44.0444 35 45.0111 35 46C35 47.3261 34.4732 48.5979 33.5355 49.5355C32.5979 50.4732 31.3261 51 30 51ZM39 34V12C39 9.61305 38.0518 7.32387 36.364 5.63604C34.6761 3.94821 32.3869 3 30 3C27.6131 3 25.3239 3.94821 23.636 5.63604C21.9482 7.32387 21 9.61305 21 12V34C18.4814 35.8889 16.621 38.5224 15.6823 41.5275C14.7436 44.5325 14.7742 47.7567 15.7698 50.7434C16.7653 53.7301 18.6754 56.3278 21.2293 58.1686C23.7833 60.0094 26.8518 61 30 61C33.1482 61 36.2167 60.0094 38.7707 58.1686C41.3246 56.3278 43.2347 53.7301 44.2303 50.7434C45.2258 47.7567 45.2564 44.5325 44.3177 41.5275C43.379 38.5224 41.5186 35.8889 39 34ZM30 59C27.232 59.0002 24.5363 58.117 22.3051 56.4788C20.074 54.8407 18.4239 52.5332 17.5952 49.8922C16.7665 47.2512 16.8024 44.4147 17.6976 41.7955C18.5928 39.1763 20.3007 36.9112 22.5725 35.33C22.7059 35.2369 22.8146 35.1126 22.8891 34.968C22.9636 34.8233 23.0016 34.6627 23 34.5V12C23 10.1435 23.7375 8.36301 25.0503 7.05025C26.363 5.7375 28.1435 5 30 5C31.8565 5 33.637 5.7375 34.9497 7.05025C36.2625 8.36301 37 10.1435 37 12V34.5C37 34.661 37.0388 34.8196 37.1133 34.9624C37.1877 35.1051 37.2955 35.2278 37.4275 35.32C39.7037 36.8997 41.4157 39.1653 42.3137 41.7864C43.2118 44.4076 43.2489 47.247 42.4197 49.8907C41.5904 52.5344 39.9383 54.844 37.7041 56.4827C35.4699 58.1213 32.7707 59.0033 30 59Z" fill="#23A3EA"/>
</svg>
